<svg width="452" height="399" viewBox="0 0 452 399" fill="none" xmlns="http://www.w3.org/2000/svg">
<path d="M399.43 175C390.197 175.012 381.13 177.483 373.144 182.163L326 213.624V257.5L391.234 213.624C393.738 212.156 396.582 211.381 399.478 211.378C402.374 211.374 405.22 212.141 407.728 213.602C410.237 215.063 412.319 217.166 413.765 219.698C415.211 222.231 415.97 225.104 415.966 228.028L415.903 306C415.903 313.141 414.517 320.211 411.826 326.807C409.135 333.402 405.191 339.394 400.219 344.437C395.248 349.481 389.346 353.478 382.854 356.199C376.361 358.921 369.404 360.314 362.381 360.298C355.358 360.282 348.407 358.857 341.926 356.106C335.445 353.355 329.561 349.331 324.612 344.265C319.663 339.199 315.745 333.19 313.083 326.582C310.421 319.974 309.066 312.898 309.098 305.757L308.998 156.196C309.089 135.746 305.172 115.479 297.47 96.5557C289.768 77.632 278.433 60.4232 264.114 45.9146C249.795 31.4059 232.773 19.8823 214.024 12.0037C195.274 4.1251 175.164 0.0461352 154.846 0.000389362C134.527 -0.0453717 114.4 3.94297 95.6151 11.7371C76.8304 19.5312 59.7576 30.9779 45.3743 45.4219C30.991 59.866 19.5797 77.0235 11.7937 95.9123C4.00772 114.801 0 135.05 0 155.5V308.519C0.00318909 324.219 4.06848 339.649 11.7964 353.292C19.5244 366.935 30.6492 378.321 44.0776 386.332C57.5061 394.344 72.7763 398.704 88.3878 398.985C103.999 399.267 119.415 395.459 133.12 387.937L255 306V261.5L115.886 356.187C107.658 360.703 98.404 362.989 89.0322 362.82C79.6603 362.651 70.4933 360.034 62.4319 355.224C54.3706 350.415 47.6922 343.58 43.0529 335.389C38.4137 327.199 35.9732 317.937 35.9713 308.511L35.8285 155.5C35.8285 139.792 38.9068 124.239 44.8872 109.731C50.8676 95.2222 59.6327 82.0434 70.6805 70.949C81.7283 59.8545 94.8419 51.0622 109.27 45.0756C123.699 39.0889 139.159 36.0255 154.766 36.0607C170.372 36.0958 185.818 39.2288 200.22 45.2804C214.622 51.332 227.696 60.1832 238.695 71.3274C249.693 82.4715 258.399 95.6896 264.315 110.225C270.231 124.76 273.24 140.327 273.17 156.035L273.001 305.593C272.948 317.56 275.218 329.42 279.679 340.495C284.141 351.569 290.707 361.64 299.002 370.13C307.297 378.621 317.157 385.365 328.019 389.975C338.88 394.586 350.53 396.973 362.3 397C374.07 397.027 385.73 394.693 396.611 390.131C407.493 385.57 417.383 378.871 425.715 370.419C434.047 361.966 440.658 351.925 445.168 340.871C449.678 329.817 452 317.967 452 306L452 228.089C452.015 218.767 449.595 209.607 444.984 201.531C440.373 193.455 433.733 186.75 425.735 182.092C417.737 177.434 408.664 174.988 399.43 175Z" fill="black"/>
<path d="M222 162.5C222 200.332 191.332 231 153.5 231C115.668 231 85 200.332 85 162.5C85 124.668 115.668 94 153.5 94C191.332 94 222 124.668 222 162.5ZM121.152 162.5C121.152 180.365 135.635 194.848 153.5 194.848C171.365 194.848 185.848 180.365 185.848 162.5C185.848 144.635 171.365 130.152 153.5 130.152C135.635 130.152 121.152 144.635 121.152 162.5Z" fill="black"/>
<path d="M448 76.5C448 113.227 418.227 143 381.5 143C344.773 143 315 113.227 315 76.5C315 39.7731 344.773 10 381.5 10C418.227 10 448 39.7731 448 76.5ZM352.713 76.5C352.713 92.3988 365.601 105.287 381.5 105.287C397.399 105.287 410.287 92.3988 410.287 76.5C410.287 60.6012 397.399 47.7126 381.5 47.7126C365.601 47.7126 352.713 60.6012 352.713 76.5Z" fill="black"/>
</svg>
